<?xml version="1.0" standalone="no"?>
<!DOCTYPE svg PUBLIC "-//W3C//DTD SVG 20010904//EN"
 "http://www.w3.org/TR/2001/REC-SVG-20010904/DTD/svg10.dtd">
<svg version="1.0" xmlns="http://www.w3.org/2000/svg"
 width="2048.000000pt" height="2048.000000pt" viewBox="0 0 2048.000000 2048.000000"
 preserveAspectRatio="xMidYMid meet">

<g transform="translate(0.000000,2048.000000) scale(0.100000,-0.100000)"
fill="#000000" stroke="none">
<path d="M3824 12060 c-142 -30 -223 -123 -276 -320 -22 -82 -23 -99 -23 -485
0 -378 1 -402 20 -440 48 -98 148 -159 260 -159 115 0 212 62 261 168 41 88
37 118 -101 662 -69 271 -125 500 -125 509 0 30 28 14 38 -22 19 -74 192 -750
217 -852 34 -137 82 -229 165 -312 108 -109 240 -161 354 -139 165 33 257 126
293 297 14 64 17 149 17 483 1 402 1 405 -22 455 -30 66 -66 102 -127 131 -96
46 -227 23 -297 -52 -67 -72 -90 -198 -50 -285 10 -24 100 -147 198 -274 239
-307 264 -340 264 -354 0 -31 -36 4 -136 134 -59 77 -120 156 -135 175 -15 19
-95 123 -178 230 -244 314 -308 381 -407 426 -59 26 -150 37 -210 24z"/>
<path d="M16695 12058 c-55 -11 -113 -61 -141 -122 -23 -50 -24 -56 -24 -376
0 -328 -3 -374 -24 -367 -8 3 -13 100 -17 323 -6 355 -9 376 -75 452 -77 90
-212 119 -313 67 -137 -69 -190 -238 -116 -374 20 -35 128 -149 371 -386 189
-185 344 -341 344 -346 0 -32 -59 16 -254 209 -325 320 -375 366 -441 403 -54
31 -68 34 -140 34 -64 0 -89 -5 -123 -23 -62 -33 -124 -99 -158 -167 -24 -50
-29 -74 -32 -159 -7 -174 33 -284 147 -396 202 -200 513 -233 811 -86 208 103
350 278 412 506 21 79 23 105 23 365 l0 280 -26 50 c-44 86 -134 131 -224 113z"/>
<path d="M5626 12049 c-61 -14 -175 -73 -237 -122 -79 -63 -178 -192 -232
-300 -90 -183 -130 -363 -131 -582 -1 -138 -1 -141 31 -200 40 -76 92 -127
168 -162 50 -23 73 -27 140 -27 67 0 90 5 137 28 105 50 177 143 198 256 6 31
10 265 10 566 0 444 2 514 15 514 12 0 15 -76 17 -553 l3 -552 33 -67 c38 -77
92 -130 171 -166 79 -37 191 -37 272 0 73 34 152 114 181 187 58 142 1 536
-109 756 -150 299 -433 479 -667 424z"/>
<path d="M6873 12045 c-155 -43 -281 -159 -333 -308 -26 -72 -25 -120 1 -175
58 -120 209 -127 310 -15 19 21 92 113 163 206 70 92 132 167 137 167 4 0 11
-4 14 -10 3 -5 -124 -178 -284 -385 -333 -431 -355 -468 -356 -589 0 -59 5
-91 18 -118 28 -55 84 -108 146 -137 47 -22 69 -26 141 -25 181 2 313 91 360
241 19 62 20 92 20 564 0 437 2 499 15 499 13 0 15 -61 15 -490 0 -324 4 -507
11 -542 31 -148 139 -241 308 -269 124 -21 225 13 303 100 56 62 73 118 64
204 -11 114 -18 124 -426 651 -118 152 -216 284 -218 292 -10 44 40 -6 168
-172 79 -102 161 -201 183 -219 90 -77 202 -63 268 34 20 28 24 47 23 100 0
57 -6 76 -39 140 -54 103 -121 173 -206 215 -134 67 -273 74 -389 20 l-65 -30
-65 30 c-54 26 -79 31 -150 33 -51 2 -106 -3 -137 -12z"/>
<path d="M8269 12045 c-100 -32 -204 -134 -229 -224 -13 -46 -13 -245 0 -336
52 -360 233 -656 475 -774 139 -68 240 -75 372 -26 281 106 491 442 534 855
22 212 3 312 -77 400 -200 221 -552 113 -595 -183 -5 -34 -9 -288 -9 -565 0
-398 -3 -503 -12 -500 -10 4 -14 128 -18 559 l-5 554 -25 50 c-75 154 -259
239 -411 190z"/>
<path d="M10155 12054 c-355 -46 -518 -147 -592 -368 l-27 -81 -4 -392 c-3
-356 -2 -395 14 -429 26 -55 80 -102 140 -121 45 -14 61 -15 107 -4 134 30
209 168 163 297 -7 22 -84 187 -170 367 -86 181 -156 333 -156 339 0 5 7 8 16
6 9 -2 44 -64 83 -148 152 -329 209 -422 351 -573 194 -208 468 -331 635 -286
60 16 132 66 165 115 115 166 38 392 -153 449 -41 12 -121 15 -408 15 -350 0
-400 4 -358 31 8 5 158 9 335 9 386 0 404 4 510 102 134 126 167 299 88 464
-31 65 -117 147 -191 182 -57 27 -60 27 -288 28 -126 1 -243 0 -260 -2z"/>
<path d="M11604 12036 c-96 -31 -175 -81 -258 -163 -196 -192 -306 -491 -310
-838 -1 -110 1 -124 25 -175 39 -82 90 -135 167 -172 59 -29 76 -33 147 -33
65 1 91 5 137 27 72 34 142 103 176 176 l27 57 3 553 c2 476 5 552 17 552 13
0 15 -71 15 -517 0 -572 3 -604 59 -691 66 -104 162 -156 286 -156 66 0 90 4
135 26 81 38 134 89 172 166 33 67 33 68 32 207 -5 475 -243 882 -578 984 -87
27 -163 26 -252 -3z"/>
<path d="M13453 12046 c-180 -58 -573 -428 -776 -729 -74 -110 -125 -211 -136
-270 -32 -174 104 -302 394 -370 82 -19 119 -21 440 -22 347 0 350 0 397 23
64 32 116 86 146 150 34 74 29 186 -11 255 -54 92 -148 147 -251 147 -29 0
-143 -24 -261 -54 -615 -159 -763 -196 -773 -196 -7 0 -12 7 -12 15 0 8 2 15
4 15 2 0 80 20 172 44 93 25 285 74 427 111 418 107 513 144 606 236 28 28 64
78 83 116 31 64 33 74 33 173 0 101 -1 108 -34 168 -40 74 -104 135 -181 171
-66 31 -198 39 -267 17z"/>
<path d="M14939 12037 c-77 -33 -119 -59 -229 -148 -107 -87 -315 -296 -406
-409 -169 -211 -264 -384 -264 -483 0 -96 81 -198 205 -256 154 -73 317 -94
701 -89 266 3 281 4 329 26 183 84 231 320 95 461 -55 56 -112 83 -190 89 -56
4 -97 -4 -300 -57 -803 -209 -770 -201 -770 -181 0 16 31 27 235 79 451 115
664 172 725 191 176 58 277 135 337 258 35 71 38 82 38 166 0 81 -3 98 -31
156 -38 80 -105 149 -181 186 -47 23 -73 29 -147 31 -78 3 -99 0 -147 -20z"/>
<path d="M6225 10125 c-257 -41 -486 -146 -628 -288 -248 -248 -253 -537 -13
-782 95 -97 184 -157 318 -214 161 -69 455 -122 594 -108 119 12 237 97 287
205 18 38 22 65 22 142 0 83 -3 101 -27 145 -36 69 -101 133 -168 164 l-55 26
-554 5 c-417 4 -555 8 -558 17 -3 9 124 13 544 15 545 3 548 3 605 26 75 30
147 96 183 169 27 52 30 68 30 153 0 81 -4 102 -25 145 -32 64 -95 127 -162
162 -49 25 -63 27 -178 30 -72 1 -163 -4 -215 -12z"/>
<path d="M7141 10121 c-100 -38 -169 -105 -209 -204 -24 -59 -24 -69 -19 -202
18 -414 178 -737 450 -909 48 -30 151 -64 214 -71 153 -18 344 80 482 247 145
176 226 402 250 702 15 179 -8 261 -95 352 -164 168 -446 120 -551 -94 l-28
-57 -3 -550 c-2 -330 -6 -553 -12 -559 -5 -5 -13 -6 -17 -2 -5 4 -10 258 -13
564 l-5 557 -25 49 c-78 154 -266 233 -419 177z"/>
<path d="M8980 10126 c-208 -32 -326 -81 -421 -175 -66 -66 -92 -114 -121
-219 -20 -70 -22 -108 -26 -436 -2 -257 0 -372 8 -402 39 -137 205 -203 326
-129 71 44 109 110 109 189 -1 58 -9 79 -169 416 -93 195 -171 361 -173 368
-3 7 3 12 13 12 14 0 28 -20 49 -68 74 -170 188 -394 237 -467 59 -88 210
-251 291 -313 142 -110 281 -166 412 -166 61 -1 91 4 126 20 63 30 116 79 147
138 22 43 26 64 27 131 0 96 -25 154 -93 216 -80 75 -72 73 -497 79 -329 4
-380 7 -380 20 0 13 47 16 345 20 381 6 374 4 471 75 237 174 200 540 -68 672
l-58 28 -235 2 c-149 1 -266 -3 -320 -11z"/>
<path d="M10150 10131 c-83 -26 -160 -91 -202 -171 l-23 -45 -3 -535 c-2 -520
-2 -536 18 -568 23 -37 71 -69 118 -78 43 -8 114 19 145 56 53 62 198 436 289
745 62 211 72 318 39 405 -44 116 -168 201 -291 199 -36 0 -76 -4 -90 -8z"/>
<path d="M11205 10124 c-38 -8 -113 -36 -165 -61 -79 -38 -108 -59 -181 -132
-73 -73 -94 -102 -132 -181 -84 -173 -98 -352 -43 -525 116 -363 507 -574 862
-464 241 74 408 241 482 481 111 358 -100 749 -466 865 -100 32 -257 39 -357
17z"/>
<path d="M12405 10127 c-109 -37 -177 -95 -222 -192 -26 -57 -28 -67 -26 -185
5 -357 117 -650 325 -845 139 -131 302 -192 440 -166 101 20 214 80 300 160
76 71 155 176 201 266 79 158 129 380 131 580 1 121 -1 134 -25 186 -37 79
-90 133 -167 171 -58 29 -76 33 -147 33 -71 0 -89 -4 -147 -33 -77 -38 -130
-92 -167 -171 l-26 -56 -3 -552 c-2 -468 -5 -553 -17 -553 -12 0 -15 85 -17
553 l-3 552 -26 56 c-57 122 -168 198 -296 205 -40 2 -85 -2 -108 -9z"/>
<path d="M13975 10124 c-151 -30 -239 -98 -286 -222 -31 -83 -24 -204 16 -287
38 -78 159 -199 240 -242 44 -23 180 -62 515 -147 557 -141 544 -137 548 -160
3 -15 0 -18 -19 -12 -13 3 -247 63 -519 132 -438 111 -502 125 -552 120 -76
-7 -117 -26 -171 -75 -60 -55 -89 -124 -89 -211 0 -117 56 -206 160 -257 l57
-28 365 0 c334 1 373 3 463 22 223 49 334 140 356 293 11 78 0 155 -30 218
-46 96 -147 182 -886 752 -75 57 -101 90 -72 90 6 0 140 -100 297 -222 158
-123 305 -232 326 -242 51 -26 146 -27 208 -3 61 24 131 100 148 162 15 55 9
149 -14 193 -21 40 -77 96 -119 119 -29 16 -71 18 -452 20 -327 1 -435 -2
-490 -13z"/>
</g>
</svg>
